<?xml version="1.0" standalone="no"?><!DOCTYPE svg PUBLIC "-//W3C//DTD SVG 1.1//EN" "http://www.w3.org/Graphics/SVG/1.1/DTD/svg11.dtd"><svg t="1729497777404" class="icon" viewBox="0 0 1024 1024" version="1.1" xmlns="http://www.w3.org/2000/svg" p-id="7055" xmlns:xlink="http://www.w3.org/1999/xlink" width="200" height="200"><path d="M864 800a48 48 0 1 1 0 96H160a48 48 0 0 1 0-96h704zM586.56 145.648a48 48 0 0 1 34.592 56.048l-0.64 2.736-124.24 463.648a48 48 0 0 1-93.392-22.096l0.656-2.752 124.24-463.648a48 48 0 0 1 58.784-33.936z m201.584 38.56l1.92 2.352 160 208 1.888 2.64a48 48 0 0 1 0.096 53.12l-1.984 2.784-160 208-1.92 2.336a48 48 0 0 1-75.952-58.4l1.776-2.48 137.488-178.72-137.488-178.736-1.76-2.464a48 48 0 0 1 75.936-58.416z m-486.864-6.416a48 48 0 0 1 10.56 64.848l-1.776 2.464-137.488 178.72 137.488 178.736 1.76 2.464a48 48 0 0 1-75.936 58.416l-1.92-2.336-160-208-1.888-2.64a48 48 0 0 1-0.096-53.12l1.984-2.784 160-208 1.92-2.336a48 48 0 0 1 65.392-6.432z" p-id="7056"></path></svg>